<?xml version="1.0" standalone="no"?>
<!DOCTYPE svg PUBLIC "-//W3C//DTD SVG 20010904//EN"
 "http://www.w3.org/TR/2001/REC-SVG-20010904/DTD/svg10.dtd">
<svg version="1.0" xmlns="http://www.w3.org/2000/svg"
 width="331.000000pt" height="331.000000pt" viewBox="0 0 331.000000 331.000000"
 preserveAspectRatio="xMidYMid meet">
<metadata>
Created by potrace 1.14, written by Peter Selinger 2001-2017
</metadata>
<g transform="translate(0.000000,331.000000) scale(0.100000,-0.100000)"
fill="#000000" stroke="none">
<path d="M1457 3299 c-58 -8 -112 -18 -231 -44 -79 -18 -284 -102 -381 -157
-223 -127 -404 -291 -547 -497 -151 -218 -252 -479 -286 -741 -9 -70 -9 -327
0 -405 40 -346 209 -699 458 -954 304 -313 708 -488 1145 -496 190 -4 298 8
461 51 587 154 1038 613 1188 1209 32 128 41 225 40 415 -2 327 -86 608 -265
880 -252 384 -650 646 -1104 726 -22 3 -49 9 -60 11 -42 9 -353 10 -418 2z"/>
</g>
</svg>
